<?xml version="1.0" encoding="UTF-8"?>
<!DOCTYPE svg PUBLIC "-//W3C//DTD SVG 1.1//EN" "http://www.w3.org/Graphics/SVG/1.1/DTD/svg11.dtd">
<svg xmlns="http://www.w3.org/2000/svg" xmlns:xlink="http://www.w3.org/1999/xlink" version="1.1" width="169px" height="168px" viewBox="-0.5 -0.5 169 168"><defs/><g><path d="M 50 25.57 L 78.87 95 C 78.87 97.04 75.83 99 70.41 100.45 C 65 101.9 57.66 102.71 50 102.71 C 34.06 102.71 21.13 99.26 21.13 95 Z" fill="#ff8000" stroke="#ffffff" stroke-width="3" stroke-miterlimit="10" transform="rotate(120,50,64.14)" pointer-events="all"/><path d="M 74 7.57 L 102.87 77 C 102.87 79.04 99.83 81 94.41 82.45 C 89 83.9 81.66 84.71 74 84.71 C 58.06 84.71 45.13 81.26 45.13 77 Z" fill="#ffee00" stroke="#ffffff" stroke-width="3" stroke-miterlimit="10" transform="rotate(-195,74,46.14)" pointer-events="all"/><path d="M 103.74 11.57 L 132.61 81 C 132.61 83.04 129.57 85 124.15 86.45 C 118.74 87.9 111.4 88.71 103.74 88.71 C 87.8 88.71 74.87 85.26 74.87 81 Z" fill="#84bf2c" stroke="#ffffff" stroke-width="3" stroke-miterlimit="10" transform="rotate(-150,103.74,50.14)" pointer-events="all"/><path d="M 121.74 35 L 150.61 104.43 C 150.61 106.47 147.57 108.43 142.15 109.88 C 136.74 111.33 129.4 112.14 121.74 112.14 C 105.8 112.14 92.87 108.69 92.87 104.43 Z" fill="#258542" stroke="#ffffff" stroke-width="3" stroke-miterlimit="10" transform="rotate(-105,121.74,73.57)" pointer-events="all"/><path d="M 118 64.57 L 146.87 134 C 146.87 136.04 143.83 138.01 138.42 139.45 C 133 140.9 125.66 141.71 118 141.71 C 102.06 141.71 89.13 138.26 89.13 134 Z" fill="#1677cc" stroke="#ffffff" stroke-width="3" stroke-miterlimit="10" transform="rotate(-60,118,103.14)" pointer-events="all"/><path d="M 94 81.57 L 122.87 151 C 122.87 153.04 119.83 155.01 114.42 156.45 C 109 157.9 101.66 158.71 94 158.71 C 78.06 158.71 65.13 155.26 65.13 151 Z" fill="#4137a1" stroke="#ffffff" stroke-width="3" stroke-miterlimit="10" transform="rotate(-375,94,120.14)" pointer-events="all"/><path d="M 65 78.57 L 93.87 148 C 93.87 150.04 90.83 152.01 85.42 153.45 C 80 154.9 72.66 155.71 65 155.71 C 49.06 155.71 36.13 152.26 36.13 148 Z" fill="#c23bcc" stroke="#ffffff" stroke-width="3" stroke-miterlimit="10" transform="rotate(-330,65,117.14)" pointer-events="all"/><path d="M 46 55.57 L 74.87 125 C 74.87 127.04 71.83 129.01 66.42 130.45 C 61 131.9 53.66 132.71 46 132.71 C 30.06 132.71 17.13 129.26 17.13 125 Z" fill="#ff3333" stroke="#ffffff" stroke-width="3" stroke-miterlimit="10" transform="rotate(-285,46,94.14)" pointer-events="all"/><ellipse cx="83.56" cy="83" rx="77.56499999999998" ry="77.56499999999998" fill="none" stroke="#ffffff" stroke-width="5" pointer-events="all"/></g></svg>